<svg xmlns="http://www.w3.org/2000/svg" xmlns:xlink="http://www.w3.org/1999/xlink" width="1700" height="1123.79"><rect width="1700" height="1123.79" rx="5" ry="5" class="a"/><svg y="0%" x="0%"><circle cx="20" cy="20" r="6" fill="#ff5f58"/><circle cx="40" cy="20" r="6" fill="#ffbd2e"/><circle cx="60" cy="20" r="6" fill="#18c132"/></svg><svg height="1063.79" viewBox="0 0 166 106.379" width="1660" x="15" xmlns="http://www.w3.org/2000/svg" xmlns:xlink="http://www.w3.org/1999/xlink" y="50"><style>@keyframes B{0%{transform:translateX(0)}1.2%{transform:translateX(-166px)}5.1%{transform:translateX(-498px)}9%{transform:translateX(-664px)}10.3%{transform:translateX(-1328px)}14.2%{transform:translateX(-1494px)}15.7%{transform:translateX(-1826px)}19.5%{transform:translateX(-1992px)}20.7%{transform:translateX(-2324px)}23.2%{transform:translateX(-2490px)}24.6%{transform:translateX(-3320px)}27.8%{transform:translateX(-3486px)}28.9%{transform:translateX(-3818px)}31.6%{transform:translateX(-3984px)}32.8%{transform:translateX(-4316px)}35.6%{transform:translateX(-4482px)}37.1%{transform:translateX(-4980px)}40.3%{transform:translateX(-5146px)}41.2%{transform:translateX(-5810px)}44.3%{transform:translateX(-5976px)}45.4%{transform:translateX(-6142px)}45.5%{transform:translateX(-6308px)}48.6%{transform:translateX(-6474px)}49.6%{transform:translateX(-6806px)}53.5%{transform:translateX(-6972px)}55%{transform:translateX(-7138px)}55.1%{transform:translateX(-7636px)}58.7%{transform:translateX(-7802px)}59.7%{transform:translateX(-8134px)}62.5%{transform:translateX(-8300px)}63.6%{transform:translateX(-8632px)}66.2%{transform:translateX(-8798px)}67.4%{transform:translateX(-9130px)}70.5%{transform:translateX(-9296px)}71.5%{transform:translateX(-9462px)}71.6%{transform:translateX(-9628px)}75.5%{transform:translateX(-9794px)}76.7%{transform:translateX(-9960px)}76.9%{transform:translateX(-10126px)}80.8%{transform:translateX(-10292px)}81.3%{transform:translateX(-10458px)}82.3%{transform:translateX(-10624px)}85.2%{transform:translateX(-10790px)}86.8%{transform:translateX(-10956px)}90.5%{transform:translateX(-11122px)}91.5%{transform:translateX(-11288px)}95.4%{transform:translateX(-11454px)}96.8%{transform:translateX(-11620px)}98.4%{transform:translateX(-11786px)}to{transform:translateX(-11952px)}}.a{fill:#000}.f{fill:#f2f2f2}.f,.h,.k,.l{white-space:pre}.h{fill:#fff;font-weight:700}.k,.l{fill:#31e722}.l{fill:red}.m{fill:gray}.m,.n,.o,.p{white-space:pre}.o,.p{fill:#ff875f}.p{fill:#ff00d7}.q,.r,.t,.u,.v,.w{fill:#b2b2b2;white-space:pre}.r,.t,.u,.v,.w{fill:#8a8a8a}.t,.u,.v,.w{fill:#ff005f}.u,.v,.w{fill:#ff5fff}.v,.w{fill:#949494}.w{fill:#ff5faf}</style><g font-family="Monaco,Consolas,Menlo,'Bitstream Vera Sans Mono','Powerline Symbols',monospace" font-size="1.67"><defs><symbol id="1"><text y="1.67" class="f">🦑</text><text x="2.004" y="1.67" style="white-space:pre" fill="#ff0" font-weight="700">nathan</text><text x="8.016" y="1.67" class="h">@</text><text x="9.018" y="1.67" style="white-space:pre" fill="gray" font-weight="700">Greyjoy</text><text x="16.032" y="1.67" class="h">:</text><text x="17.034" y="1.67" style="white-space:pre" fill="#a8a8a8" font-weight="700">~/Hornvale/spec</text></symbol><symbol id="2"><text y="1.67" class="h">$</text></symbol><symbol id="3"><text y="1.67" class="h">$</text><text x="2.004" y="1.67" class="f">python3</text><text x="10.02" y="1.67" class="f">juice_simulator.py</text></symbol><symbol id="4"><text y="1.67" class="k">@</text><text x="2.004" y="1.67" class="l">#</text><text x="4.008" y="1.67" class="m">#</text><text x="6.012" y="1.67" class="n">#</text><text x="8.016" y="1.67" class="n">#</text><text x="10.02" y="1.67" class="n">#</text><text x="12.024" y="1.67" class="n">#</text><text x="14.028" y="1.67" class="n">#</text></symbol><symbol id="5"><text y="1.67" class="l">#</text><text x="2.004" y="1.67" class="m">#</text><text x="4.008" y="1.67" class="n">#</text><text x="6.012" y="1.67" class="n">#</text><text x="8.016" y="1.67" class="n">#</text><text x="10.02" y="1.67" class="n">#</text><text x="12.024" y="1.67" class="n">#</text><text x="14.028" y="1.67" class="n">#</text></symbol><symbol id="6"><text y="1.67" class="m">#</text><text x="2.004" y="1.67" class="n">#</text><text x="4.008" y="1.67" class="n">#</text><text x="6.012" y="1.67" class="n">#</text><text x="8.016" y="1.67" class="n">#</text><text x="10.02" y="1.67" class="n">#</text><text x="12.024" y="1.67" class="n">#</text><text x="14.028" y="1.67" class="n">#</text></symbol><symbol id="7"><text y="1.67" class="n">#</text><text x="2.004" y="1.67" class="n">#</text><text x="4.008" y="1.67" class="n">#</text><text x="6.012" y="1.67" class="n">#</text><text x="8.016" y="1.67" class="n">#</text><text x="10.02" y="1.67" class="n">#</text><text x="12.024" y="1.67" class="n">#</text><text x="14.028" y="1.67" class="n">#</text></symbol><symbol id="8"><text y="1.67" class="f">Direction:</text></symbol><symbol id="9"><text y="1.67" class="f">Direction:</text><text x="11.022" y="1.67" class="f">d</text></symbol><symbol id="10"><text y="1.67" class="o">#</text><text x="2.004" y="1.67" class="k">@</text><text x="4.008" y="1.67" class="l">#</text><text x="6.012" y="1.67" class="m">#</text><text x="8.016" y="1.67" class="n">#</text><text x="10.02" y="1.67" class="n">#</text><text x="12.024" y="1.67" class="n">#</text><text x="14.028" y="1.67" class="n">#</text></symbol><symbol id="11"><text y="1.67" class="m">#</text><text x="2.004" y="1.67" class="l">#</text><text x="4.008" y="1.67" class="m">#</text><text x="6.012" y="1.67" class="n">#</text><text x="8.016" y="1.67" class="n">#</text><text x="10.02" y="1.67" class="n">#</text><text x="12.024" y="1.67" class="n">#</text><text x="14.028" y="1.67" class="n">#</text></symbol><symbol id="12"><text y="1.67" class="n">#</text><text x="2.004" y="1.67" class="m">#</text><text x="4.008" y="1.67" class="n">#</text><text x="6.012" y="1.67" class="n">#</text><text x="8.016" y="1.67" class="n">#</text><text x="10.02" y="1.67" class="n">#</text><text x="12.024" y="1.67" class="n">#</text><text x="14.028" y="1.67" class="n">#</text></symbol><symbol id="13"><text y="1.67" class="p">#</text><text x="2.004" y="1.67" class="o">#</text><text x="4.008" y="1.67" class="k">@</text><text x="6.012" y="1.67" class="l">#</text><text x="8.016" y="1.67" class="m">#</text><text x="10.02" y="1.67" class="n">#</text><text x="12.024" y="1.67" class="n">#</text><text x="14.028" y="1.67" class="n">#</text></symbol><symbol id="14"><text y="1.67" class="n">#</text><text x="2.004" y="1.67" class="m">#</text><text x="4.008" y="1.67" class="l">#</text><text x="6.012" y="1.67" class="m">#</text><text x="8.016" y="1.67" class="n">#</text><text x="10.02" y="1.67" class="n">#</text><text x="12.024" y="1.67" class="n">#</text><text x="14.028" y="1.67" class="n">#</text></symbol><symbol id="15"><text y="1.67" class="n">#</text><text x="2.004" y="1.67" class="n">#</text><text x="4.008" y="1.67" class="m">#</text><text x="6.012" y="1.67" class="n">#</text><text x="8.016" y="1.67" class="n">#</text><text x="10.02" y="1.67" class="n">#</text><text x="12.024" y="1.67" class="n">#</text><text x="14.028" y="1.67" class="n">#</text></symbol><symbol id="16"><text y="1.67" class="f">Direction:</text><text x="11.022" y="1.67" class="f">s</text></symbol><symbol id="17"><text y="1.67" class="q">#</text><text x="2.004" y="1.67" class="p">#</text><text x="4.008" y="1.67" class="o">#</text><text x="6.012" y="1.67" class="m">#</text><text x="8.016" y="1.67" class="n">#</text><text x="10.02" y="1.67" class="n">#</text><text x="12.024" y="1.67" class="n">#</text><text x="14.028" y="1.67" class="n">#</text></symbol><symbol id="18"><text y="1.67" class="m">#</text><text x="2.004" y="1.67" class="l">#</text><text x="4.008" y="1.67" class="k">@</text><text x="6.012" y="1.67" class="l">#</text><text x="8.016" y="1.67" class="m">#</text><text x="10.02" y="1.67" class="n">#</text><text x="12.024" y="1.67" class="n">#</text><text x="14.028" y="1.67" class="n">#</text></symbol><symbol id="19"><text y="1.67" class="r">#</text><text x="2.004" y="1.67" class="q">#</text><text x="4.008" y="1.67" class="p">#</text><text x="6.012" y="1.67" class="n">#</text><text x="8.016" y="1.67" class="n">#</text><text x="10.02" y="1.67" class="n">#</text><text x="12.024" y="1.67" class="n">#</text><text x="14.028" y="1.67" class="n">#</text></symbol><symbol id="20"><text y="1.67" class="n">#</text><text x="2.004" y="1.67" class="m">#</text><text x="4.008" y="1.67" class="o">#</text><text x="6.012" y="1.67" class="m">#</text><text x="8.016" y="1.67" class="n">#</text><text x="10.02" y="1.67" class="n">#</text><text x="12.024" y="1.67" class="n">#</text><text x="14.028" y="1.67" class="n">#</text></symbol><symbol id="21"><text y="1.67" class="n">#</text><text x="2.004" y="1.67" class="r">#</text><text x="4.008" y="1.67" class="q">#</text><text x="6.012" y="1.67" class="n">#</text><text x="8.016" y="1.67" class="n">#</text><text x="10.02" y="1.67" class="n">#</text><text x="12.024" y="1.67" class="n">#</text><text x="14.028" y="1.67" class="n">#</text></symbol><symbol id="22"><text y="1.67" class="n">#</text><text x="2.004" y="1.67" class="n">#</text><text x="4.008" y="1.67" class="p">#</text><text x="6.012" y="1.67" class="n">#</text><text x="8.016" y="1.67" class="n">#</text><text x="10.02" y="1.67" class="n">#</text><text x="12.024" y="1.67" class="n">#</text><text x="14.028" y="1.67" class="n">#</text></symbol><symbol id="23"><text y="1.67" class="n">#</text><text x="2.004" y="1.67" class="n">#</text><text x="4.008" y="1.67" class="r">#</text><text x="6.012" y="1.67" class="n">#</text><text x="8.016" y="1.67" class="n">#</text><text x="10.02" y="1.67" class="n">#</text><text x="12.024" y="1.67" class="n">#</text><text x="14.028" y="1.67" class="n">#</text></symbol><symbol id="24"><text y="1.67" class="n">#</text><text x="2.004" y="1.67" class="n">#</text><text x="4.008" y="1.67" class="q">#</text><text x="6.012" y="1.67" class="m">#</text><text x="8.016" y="1.67" class="n">#</text><text x="10.02" y="1.67" class="n">#</text><text x="12.024" y="1.67" class="n">#</text><text x="14.028" y="1.67" class="n">#</text></symbol><symbol id="25"><text y="1.67" class="n">#</text><text x="2.004" y="1.67" class="n">#</text><text x="4.008" y="1.67" class="p">#</text><text x="6.012" y="1.67" class="l">#</text><text x="8.016" y="1.67" class="m">#</text><text x="10.02" y="1.67" class="n">#</text><text x="12.024" y="1.67" class="n">#</text><text x="14.028" y="1.67" class="n">#</text></symbol><symbol id="26"><text y="1.67" class="n">#</text><text x="2.004" y="1.67" class="m">#</text><text x="4.008" y="1.67" class="o">#</text><text x="6.012" y="1.67" class="k">@</text><text x="8.016" y="1.67" class="l">#</text><text x="10.02" y="1.67" class="m">#</text><text x="12.024" y="1.67" class="n">#</text><text x="14.028" y="1.67" class="n">#</text></symbol><symbol id="27"><text y="1.67" class="n">#</text><text x="2.004" y="1.67" class="n">#</text><text x="4.008" y="1.67" class="m">#</text><text x="6.012" y="1.67" class="l">#</text><text x="8.016" y="1.67" class="m">#</text><text x="10.02" y="1.67" class="n">#</text><text x="12.024" y="1.67" class="n">#</text><text x="14.028" y="1.67" class="n">#</text></symbol><symbol id="28"><text y="1.67" class="n">#</text><text x="2.004" y="1.67" class="n">#</text><text x="4.008" y="1.67" class="n">#</text><text x="6.012" y="1.67" class="m">#</text><text x="8.016" y="1.67" class="n">#</text><text x="10.02" y="1.67" class="n">#</text><text x="12.024" y="1.67" class="n">#</text><text x="14.028" y="1.67" class="n">#</text></symbol><symbol id="29"><text y="1.67" class="n">#</text><text x="2.004" y="1.67" class="n">#</text><text x="4.008" y="1.67" class="r">#</text><text x="6.012" y="1.67" class="n">#</text><text x="8.016" y="1.67" class="m">#</text><text x="10.02" y="1.67" class="n">#</text><text x="12.024" y="1.67" class="n">#</text><text x="14.028" y="1.67" class="n">#</text></symbol><symbol id="30"><text y="1.67" class="n">#</text><text x="2.004" y="1.67" class="n">#</text><text x="4.008" y="1.67" class="q">#</text><text x="6.012" y="1.67" class="m">#</text><text x="8.016" y="1.67" class="l">#</text><text x="10.02" y="1.67" class="m">#</text><text x="12.024" y="1.67" class="n">#</text><text x="14.028" y="1.67" class="n">#</text></symbol><symbol id="31"><text y="1.67" class="n">#</text><text x="2.004" y="1.67" class="n">#</text><text x="4.008" y="1.67" class="p">#</text><text x="6.012" y="1.67" class="o">#</text><text x="8.016" y="1.67" class="k">@</text><text x="10.02" y="1.67" class="l">#</text><text x="12.024" y="1.67" class="m">#</text><text x="14.028" y="1.67" class="n">#</text></symbol><symbol id="32"><text y="1.67" class="n">#</text><text x="2.004" y="1.67" class="n">#</text><text x="4.008" y="1.67" class="n">#</text><text x="6.012" y="1.67" class="m">#</text><text x="8.016" y="1.67" class="l">#</text><text x="10.02" y="1.67" class="m">#</text><text x="12.024" y="1.67" class="n">#</text><text x="14.028" y="1.67" class="n">#</text></symbol><symbol id="33"><text y="1.67" class="n">#</text><text x="2.004" y="1.67" class="n">#</text><text x="4.008" y="1.67" class="n">#</text><text x="6.012" y="1.67" class="n">#</text><text x="8.016" y="1.67" class="m">#</text><text x="10.02" y="1.67" class="n">#</text><text x="12.024" y="1.67" class="n">#</text><text x="14.028" y="1.67" class="n">#</text></symbol><symbol id="34"><text y="1.67" class="n">#</text><text x="2.004" y="1.67" class="n">#</text><text x="4.008" y="1.67" class="q">#</text><text x="6.012" y="1.67" class="p">#</text><text x="8.016" y="1.67" class="o">#</text><text x="10.02" y="1.67" class="m">#</text><text x="12.024" y="1.67" class="n">#</text><text x="14.028" y="1.67" class="n">#</text></symbol><symbol id="35"><text y="1.67" class="n">#</text><text x="2.004" y="1.67" class="n">#</text><text x="4.008" y="1.67" class="m">#</text><text x="6.012" y="1.67" class="l">#</text><text x="8.016" y="1.67" class="k">@</text><text x="10.02" y="1.67" class="l">#</text><text x="12.024" y="1.67" class="m">#</text><text x="14.028" y="1.67" class="n">#</text></symbol><symbol id="36"><text y="1.67" class="f">Direction:</text><text x="11.022" y="1.67" class="f">a</text></symbol><symbol id="37"><text y="1.67" class="n">#</text><text x="2.004" y="1.67" class="n">#</text><text x="4.008" y="1.67" style="white-space:pre" fill="#9e9e9e">#</text><text x="6.012" y="1.67" class="m">#</text><text x="8.016" y="1.67" class="n">#</text><text x="10.02" y="1.67" class="n">#</text><text x="12.024" y="1.67" class="n">#</text><text x="14.028" y="1.67" class="n">#</text></symbol><symbol id="38"><text y="1.67" class="n">#</text><text x="2.004" y="1.67" class="n">#</text><text x="4.008" y="1.67" class="t">#</text><text x="6.012" y="1.67" class="u">#</text><text x="8.016" y="1.67" class="p">#</text><text x="10.02" y="1.67" class="n">#</text><text x="12.024" y="1.67" class="n">#</text><text x="14.028" y="1.67" class="n">#</text></symbol><symbol id="39"><text y="1.67" class="n">#</text><text x="2.004" y="1.67" class="m">#</text><text x="4.008" y="1.67" class="l">#</text><text x="6.012" y="1.67" class="k">@</text><text x="8.016" y="1.67" class="o">#</text><text x="10.02" y="1.67" class="m">#</text><text x="12.024" y="1.67" class="n">#</text><text x="14.028" y="1.67" class="n">#</text></symbol><symbol id="40"><text y="1.67" class="f">Direction:</text><text x="11.022" y="1.67" class="f">w</text></symbol><symbol id="41"><text y="1.67" class="n">#</text><text x="2.004" y="1.67" class="n">#</text><text x="4.008" y="1.67" class="v">#</text><text x="6.012" y="1.67" class="m">#</text><text x="8.016" y="1.67" class="n">#</text><text x="10.02" y="1.67" class="n">#</text><text x="12.024" y="1.67" class="n">#</text><text x="14.028" y="1.67" class="n">#</text></symbol><symbol id="42"><text y="1.67" class="n">#</text><text x="2.004" y="1.67" class="n">#</text><text x="4.008" y="1.67" class="l">#</text><text x="6.012" y="1.67" class="l">#</text><text x="8.016" y="1.67" class="m">#</text><text x="10.02" y="1.67" class="n">#</text><text x="12.024" y="1.67" class="n">#</text><text x="14.028" y="1.67" class="n">#</text></symbol><symbol id="43"><text y="1.67" class="n">#</text><text x="2.004" y="1.67" class="m">#</text><text x="4.008" y="1.67" class="w">#</text><text x="6.012" y="1.67" class="k">@</text><text x="8.016" y="1.67" class="u">#</text><text x="10.02" y="1.67" class="m">#</text><text x="12.024" y="1.67" class="n">#</text><text x="14.028" y="1.67" class="n">#</text></symbol><symbol id="44"><text y="1.67" class="n">#</text><text x="2.004" y="1.67" class="n">#</text><text x="4.008" y="1.67" class="m">#</text><text x="6.012" y="1.67" class="o">#</text><text x="8.016" y="1.67" class="p">#</text><text x="10.02" y="1.67" class="n">#</text><text x="12.024" y="1.67" class="n">#</text><text x="14.028" y="1.67" class="n">#</text></symbol><symbol id="45"><text y="1.67" class="n">#</text><text x="2.004" y="1.67" class="n">#</text><text x="4.008" y="1.67" class="v">#</text><text x="6.012" y="1.67" class="m">#</text><text x="8.016" y="1.67" class="l">#</text><text x="10.02" y="1.67" class="m">#</text><text x="12.024" y="1.67" class="n">#</text><text x="14.028" y="1.67" class="n">#</text></symbol><symbol id="46"><text y="1.67" class="n">#</text><text x="2.004" y="1.67" class="n">#</text><text x="4.008" y="1.67" class="l">#</text><text x="6.012" y="1.67" class="o">#</text><text x="8.016" y="1.67" class="k">@</text><text x="10.02" y="1.67" class="l">#</text><text x="12.024" y="1.67" class="m">#</text><text x="14.028" y="1.67" class="n">#</text></symbol><symbol id="47"><text y="1.67" class="n">#</text><text x="2.004" y="1.67" class="n">#</text><text x="4.008" y="1.67" class="n">#</text><text x="6.012" y="1.67" class="p">#</text><text x="8.016" y="1.67" class="u">#</text><text x="10.02" y="1.67" class="m">#</text><text x="12.024" y="1.67" class="n">#</text><text x="14.028" y="1.67" class="n">#</text></symbol><symbol id="48"><text y="1.67" class="n">#</text><text x="2.004" y="1.67" class="n">#</text><text x="4.008" y="1.67" class="n">#</text><text x="6.012" y="1.67" class="n">#</text><text x="8.016" y="1.67" class="n">#</text><text x="10.02" y="1.67" class="m">#</text><text x="12.024" y="1.67" class="n">#</text><text x="14.028" y="1.67" class="n">#</text></symbol><symbol id="49"><text y="1.67" class="n">#</text><text x="2.004" y="1.67" class="n">#</text><text x="4.008" y="1.67" class="n">#</text><text x="6.012" y="1.67" class="n">#</text><text x="8.016" y="1.67" class="m">#</text><text x="10.02" y="1.67" class="l">#</text><text x="12.024" y="1.67" class="m">#</text><text x="14.028" y="1.67" class="n">#</text></symbol><symbol id="50"><text y="1.67" class="n">#</text><text x="2.004" y="1.67" class="n">#</text><text x="4.008" y="1.67" class="v">#</text><text x="6.012" y="1.67" class="p">#</text><text x="8.016" y="1.67" class="o">#</text><text x="10.02" y="1.67" class="k">@</text><text x="12.024" y="1.67" class="l">#</text><text x="14.028" y="1.67" class="m">#</text></symbol><symbol id="51"><text y="1.67" class="n">#</text><text x="2.004" y="1.67" class="n">#</text><text x="4.008" y="1.67" class="n">#</text><text x="6.012" y="1.67" class="q">#</text><text x="8.016" y="1.67" class="t">#</text><text x="10.02" y="1.67" class="l">#</text><text x="12.024" y="1.67" class="m">#</text><text x="14.028" y="1.67" class="n">#</text></symbol><symbol id="52"><text y="1.67" class="n">#</text><text x="2.004" y="1.67" class="n">#</text><text x="4.008" y="1.67" class="r">#</text><text x="6.012" y="1.67" class="m">#</text><text x="8.016" y="1.67" class="l">#</text><text x="10.02" y="1.67" class="m">#</text><text x="12.024" y="1.67" class="n">#</text><text x="14.028" y="1.67" class="n">#</text></symbol><symbol id="53"><text y="1.67" class="n">#</text><text x="2.004" y="1.67" class="n">#</text><text x="4.008" y="1.67" style="white-space:pre" fill="#bcbcbc">#</text><text x="6.012" y="1.67" class="u">#</text><text x="8.016" y="1.67" class="k">@</text><text x="10.02" y="1.67" class="o">#</text><text x="12.024" y="1.67" class="m">#</text><text x="14.028" y="1.67" class="n">#</text></symbol><symbol id="54"><text y="1.67" class="n">#</text><text x="2.004" y="1.67" class="n">#</text><text x="4.008" y="1.67" class="n">#</text><text x="6.012" y="1.67" class="t">#</text><text x="8.016" y="1.67" class="w">#</text><text x="10.02" y="1.67" class="m">#</text><text x="12.024" y="1.67" class="n">#</text><text x="14.028" y="1.67" class="n">#</text></symbol><symbol id="55"><text y="1.67" class="n">#</text><text x="2.004" y="1.67" class="n">#</text><text x="4.008" y="1.67" class="m">#</text><text x="6.012" y="1.67" class="m">#</text><text x="8.016" y="1.67" class="n">#</text><text x="10.02" y="1.67" class="n">#</text><text x="12.024" y="1.67" class="n">#</text><text x="14.028" y="1.67" class="n">#</text></symbol><symbol id="56"><text y="1.67" class="n">#</text><text x="2.004" y="1.67" class="n">#</text><text x="4.008" y="1.67" class="q">#</text><text x="6.012" y="1.67" class="l">#</text><text x="8.016" y="1.67" class="m">#</text><text x="10.02" y="1.67" class="n">#</text><text x="12.024" y="1.67" class="n">#</text><text x="14.028" y="1.67" class="n">#</text></symbol><symbol id="57"><text y="1.67" class="n">#</text><text x="2.004" y="1.67" class="m">#</text><text x="4.008" y="1.67" style="white-space:pre" fill="#ff5f00">#</text><text x="6.012" y="1.67" class="k">@</text><text x="8.016" y="1.67" class="o">#</text><text x="10.02" y="1.67" class="p">#</text><text x="12.024" y="1.67" class="n">#</text><text x="14.028" y="1.67" class="n">#</text></symbol><symbol id="58"><text y="1.67" class="n">#</text><text x="2.004" y="1.67" class="n">#</text><text x="4.008" y="1.67" class="m">#</text><text x="6.012" y="1.67" class="w">#</text><text x="8.016" y="1.67" class="l">#</text><text x="10.02" y="1.67" class="n">#</text><text x="12.024" y="1.67" class="n">#</text><text x="14.028" y="1.67" class="n">#</text></symbol><symbol id="59"><text y="1.67" class="f">Direction:</text><text x="11.022" y="1.67" class="f">q</text></symbol><symbol id="60"><text y="1.67" class="h">$</text><text x="2.004" y="1.67" class="f">asci</text></symbol><symbol id="61"><text y="1.67" class="h">$</text><text x="2.004" y="1.67" class="f">asciisvg</text></symbol><symbol id="a"><path fill="transparent" d="M0 0h166v49H0z"/></symbol><symbol id="b"><path fill="#4d4d4d" d="M0 0h1.102v2.171H0z"/></symbol></defs><path class="a" d="M0 0h166v106.379H0z"/><g style="animation-duration:12.752073000000001s;animation-iteration-count:infinite;animation-name:B;animation-timing-function:steps(1,end)"><svg width="12118"><svg><use xlink:href="#a"/><use xlink:href="#b" x="-.004"/></svg><svg x="166"><use xlink:href="#a"/><use xlink:href="#b" x="1.996" y="2.146"/><use xlink:href="#1"/><use xlink:href="#2" y="2.171"/></svg><svg x="332"><use xlink:href="#a"/><use xlink:href="#b" x="13.996" y="2.146"/><use xlink:href="#1"/><text y="3.841" class="h">$</text><text x="2.004" y="3.841" class="f">python3</text><text x="10.02" y="3.841" class="f">juic</text></svg><svg x="498"><use xlink:href="#a"/><use xlink:href="#b" x="27.996" y="2.146"/><use xlink:href="#1"/><use xlink:href="#3" y="2.171"/></svg><svg x="664"><use xlink:href="#a"/><use xlink:href="#b" x="-.004" y="4.317"/><use xlink:href="#1"/><use xlink:href="#3" y="2.171"/></svg><svg x="830"><use xlink:href="#a"/><use xlink:href="#b" x="-.004" y="2.146"/></svg><svg x="996"><use xlink:href="#a"/><use xlink:href="#b" x="-.004" y="6.488"/><use xlink:href="#4" y="2.171"/><use xlink:href="#5" y="4.342"/></svg><svg x="1162"><use xlink:href="#a"/><use xlink:href="#b" x="-.004" y="10.83"/><use xlink:href="#4" y="2.171"/><use xlink:href="#5" y="4.342"/><use xlink:href="#6" y="6.513"/><use xlink:href="#7" y="8.684"/></svg><svg x="1328"><use xlink:href="#a"/><use xlink:href="#b" x="10.996" y="19.514"/><use xlink:href="#4" y="2.171"/><use xlink:href="#5" y="4.342"/><use xlink:href="#6" y="6.513"/><use xlink:href="#7" y="8.684"/><use xlink:href="#7" y="10.855"/><use xlink:href="#7" y="13.026"/><use xlink:href="#7" y="15.197"/><use xlink:href="#7" y="17.368"/><use xlink:href="#8" y="19.539"/></svg><svg x="1494"><use xlink:href="#a"/><use xlink:href="#b" x="11.996" y="19.514"/><use xlink:href="#4" y="2.171"/><use xlink:href="#5" y="4.342"/><use xlink:href="#6" y="6.513"/><use xlink:href="#7" y="8.684"/><use xlink:href="#7" y="10.855"/><use xlink:href="#7" y="13.026"/><use xlink:href="#7" y="15.197"/><use xlink:href="#7" y="17.368"/><use xlink:href="#9" y="19.539"/></svg><svg x="1660"><use xlink:href="#a"/><use xlink:href="#b" x="-.004" y="21.685"/><use xlink:href="#4" y="2.171"/><use xlink:href="#5" y="4.342"/><use xlink:href="#6" y="6.513"/><use xlink:href="#7" y="8.684"/><use xlink:href="#7" y="10.855"/><use xlink:href="#7" y="13.026"/><use xlink:href="#7" y="15.197"/><use xlink:href="#7" y="17.368"/><use xlink:href="#9" y="19.539"/></svg><svg x="1826"><use xlink:href="#a"/><use xlink:href="#b" x="10.996" y="19.514"/><use xlink:href="#10" y="2.171"/><use xlink:href="#11" y="4.342"/><use xlink:href="#12" y="6.513"/><use xlink:href="#7" y="8.684"/><use xlink:href="#7" y="10.855"/><use xlink:href="#7" y="13.026"/><use xlink:href="#7" y="15.197"/><use xlink:href="#7" y="17.368"/><use xlink:href="#8" y="19.539"/></svg><svg x="1992"><use xlink:href="#a"/><use xlink:href="#b" x="11.996" y="19.514"/><use xlink:href="#10" y="2.171"/><use xlink:href="#11" y="4.342"/><use xlink:href="#12" y="6.513"/><use xlink:href="#7" y="8.684"/><use xlink:href="#7" y="10.855"/><use xlink:href="#7" y="13.026"/><use xlink:href="#7" y="15.197"/><use xlink:href="#7" y="17.368"/><use xlink:href="#9" y="19.539"/></svg><svg x="2158"><use xlink:href="#a"/><use xlink:href="#b" x="-.004" y="21.685"/><use xlink:href="#10" y="2.171"/><use xlink:href="#11" y="4.342"/><use xlink:href="#12" y="6.513"/><use xlink:href="#7" y="8.684"/><use xlink:href="#7" y="10.855"/><use xlink:href="#7" y="13.026"/><use xlink:href="#7" y="15.197"/><use xlink:href="#7" y="17.368"/><use xlink:href="#9" y="19.539"/></svg><svg x="2324"><use xlink:href="#a"/><use xlink:href="#b" x="10.996" y="19.514"/><use xlink:href="#13" y="2.171"/><use xlink:href="#14" y="4.342"/><use xlink:href="#15" y="6.513"/><use xlink:href="#7" y="8.684"/><use xlink:href="#7" y="10.855"/><use xlink:href="#7" y="13.026"/><use xlink:href="#7" y="15.197"/><use xlink:href="#7" y="17.368"/><use xlink:href="#8" y="19.539"/></svg><svg x="2490"><use xlink:href="#a"/><use xlink:href="#b" x="11.996" y="19.514"/><use xlink:href="#13" y="2.171"/><use xlink:href="#14" y="4.342"/><use xlink:href="#15" y="6.513"/><use xlink:href="#7" y="8.684"/><use xlink:href="#7" y="10.855"/><use xlink:href="#7" y="13.026"/><use xlink:href="#7" y="15.197"/><use xlink:href="#7" y="17.368"/><use xlink:href="#16" y="19.539"/></svg><svg x="2656"><use xlink:href="#a"/><use xlink:href="#b" x="-.004" y="21.685"/><use xlink:href="#13" y="2.171"/><use xlink:href="#14" y="4.342"/><use xlink:href="#15" y="6.513"/><use xlink:href="#7" y="8.684"/><use xlink:href="#7" y="10.855"/><use xlink:href="#7" y="13.026"/><use xlink:href="#7" y="15.197"/><use xlink:href="#7" y="17.368"/><use xlink:href="#16" y="19.539"/></svg><svg x="2822"><use xlink:href="#a"/><use xlink:href="#b" x="-.004" y="2.146"/></svg><svg x="2988"><use xlink:href="#a"/><use xlink:href="#b" x="-.004" y="6.488"/><use xlink:href="#17" y="2.171"/><use xlink:href="#18" y="4.342"/></svg><svg x="3154"><use xlink:href="#a"/><use xlink:href="#b" x="-.004" y="10.83"/><use xlink:href="#17" y="2.171"/><use xlink:href="#18" y="4.342"/><use xlink:href="#14" y="6.513"/><use xlink:href="#15" y="8.684"/></svg><svg x="3320"><use xlink:href="#a"/><use xlink:href="#b" x="10.996" y="19.514"/><use xlink:href="#17" y="2.171"/><use xlink:href="#18" y="4.342"/><use xlink:href="#14" y="6.513"/><use xlink:href="#15" y="8.684"/><use xlink:href="#7" y="10.855"/><use xlink:href="#7" y="13.026"/><use xlink:href="#7" y="15.197"/><use xlink:href="#7" y="17.368"/><use xlink:href="#8" y="19.539"/></svg><svg x="3486"><use xlink:href="#a"/><use xlink:href="#b" x="11.996" y="19.514"/><use xlink:href="#17" y="2.171"/><use xlink:href="#18" y="4.342"/><use xlink:href="#14" y="6.513"/><use xlink:href="#15" y="8.684"/><use xlink:href="#7" y="10.855"/><use xlink:href="#7" y="13.026"/><use xlink:href="#7" y="15.197"/><use xlink:href="#7" y="17.368"/><use xlink:href="#16" y="19.539"/></svg><svg x="3652"><use xlink:href="#a"/><use xlink:href="#b" x="-.004" y="21.685"/><use xlink:href="#17" y="2.171"/><use xlink:href="#18" y="4.342"/><use xlink:href="#14" y="6.513"/><use xlink:href="#15" y="8.684"/><use xlink:href="#7" y="10.855"/><use xlink:href="#7" y="13.026"/><use xlink:href="#7" y="15.197"/><use xlink:href="#7" y="17.368"/><use xlink:href="#16" y="19.539"/></svg><svg x="3818"><use xlink:href="#a"/><use xlink:href="#b" x="10.996" y="19.514"/><use xlink:href="#19" y="2.171"/><use xlink:href="#20" y="4.342"/><use xlink:href="#18" y="6.513"/><use xlink:href="#14" y="8.684"/><use xlink:href="#15" y="10.855"/><use xlink:href="#7" y="13.026"/><use xlink:href="#7" y="15.197"/><use xlink:href="#7" y="17.368"/><use xlink:href="#8" y="19.539"/></svg><svg x="3984"><use xlink:href="#a"/><use xlink:href="#b" x="11.996" y="19.514"/><use xlink:href="#19" y="2.171"/><use xlink:href="#20" y="4.342"/><use xlink:href="#18" y="6.513"/><use xlink:href="#14" y="8.684"/><use xlink:href="#15" y="10.855"/><use xlink:href="#7" y="13.026"/><use xlink:href="#7" y="15.197"/><use xlink:href="#7" y="17.368"/><use xlink:href="#16" y="19.539"/></svg><svg x="4150"><use xlink:href="#a"/><use xlink:href="#b" x="-.004" y="21.685"/><use xlink:href="#19" y="2.171"/><use xlink:href="#20" y="4.342"/><use xlink:href="#18" y="6.513"/><use xlink:href="#14" y="8.684"/><use xlink:href="#15" y="10.855"/><use xlink:href="#7" y="13.026"/><use xlink:href="#7" y="15.197"/><use xlink:href="#7" y="17.368"/><use xlink:href="#16" y="19.539"/></svg><svg x="4316"><use xlink:href="#a"/><use xlink:href="#b" x="10.996" y="19.514"/><use xlink:href="#21" y="2.171"/><use xlink:href="#22" y="4.342"/><use xlink:href="#20" y="6.513"/><use xlink:href="#18" y="8.684"/><use xlink:href="#14" y="10.855"/><use xlink:href="#15" y="13.026"/><use xlink:href="#7" y="15.197"/><use xlink:href="#7" y="17.368"/><use xlink:href="#8" y="19.539"/></svg><svg x="4482"><use xlink:href="#a"/><use xlink:href="#b" x="11.996" y="19.514"/><use xlink:href="#21" y="2.171"/><use xlink:href="#22" y="4.342"/><use xlink:href="#20" y="6.513"/><use xlink:href="#18" y="8.684"/><use xlink:href="#14" y="10.855"/><use xlink:href="#15" y="13.026"/><use xlink:href="#7" y="15.197"/><use xlink:href="#7" y="17.368"/><use xlink:href="#9" y="19.539"/></svg><svg x="4648"><use xlink:href="#a"/><use xlink:href="#b" x="-.004" y="21.685"/><use xlink:href="#21" y="2.171"/><use xlink:href="#22" y="4.342"/><use xlink:href="#20" y="6.513"/><use xlink:href="#18" y="8.684"/><use xlink:href="#14" y="10.855"/><use xlink:href="#15" y="13.026"/><use xlink:href="#7" y="15.197"/><use xlink:href="#7" y="17.368"/><use xlink:href="#9" y="19.539"/></svg><svg x="4814"><use xlink:href="#a"/><use xlink:href="#b" x="-.004" y="2.146"/></svg><svg x="4980"><use xlink:href="#a"/><use xlink:href="#b" x="10.996" y="19.514"/><use xlink:href="#23" y="2.171"/><use xlink:href="#24" y="4.342"/><use xlink:href="#25" y="6.513"/><use xlink:href="#26" y="8.684"/><use xlink:href="#27" y="10.855"/><use xlink:href="#28" y="13.026"/><use xlink:href="#7" y="15.197"/><use xlink:href="#7" y="17.368"/><use xlink:href="#8" y="19.539"/></svg><svg x="5146"><use xlink:href="#a"/><use xlink:href="#b" x="11.996" y="19.514"/><use xlink:href="#23" y="2.171"/><use xlink:href="#24" y="4.342"/><use xlink:href="#25" y="6.513"/><use xlink:href="#26" y="8.684"/><use xlink:href="#27" y="10.855"/><use xlink:href="#28" y="13.026"/><use xlink:href="#7" y="15.197"/><use xlink:href="#7" y="17.368"/><use xlink:href="#9" y="19.539"/></svg><svg x="5312"><use xlink:href="#a"/><use xlink:href="#b" x="-.004" y="21.685"/><use xlink:href="#23" y="2.171"/><use xlink:href="#24" y="4.342"/><use xlink:href="#25" y="6.513"/><use xlink:href="#26" y="8.684"/><use xlink:href="#27" y="10.855"/><use xlink:href="#28" y="13.026"/><use xlink:href="#7" y="15.197"/><use xlink:href="#7" y="17.368"/><use xlink:href="#9" y="19.539"/></svg><svg x="5478"><use xlink:href="#a"/><use xlink:href="#b" x="-.004" y="17.343"/><use xlink:href="#7" y="2.171"/><use xlink:href="#29" y="4.342"/><use xlink:href="#30" y="6.513"/><use xlink:href="#31" y="8.684"/><use xlink:href="#32" y="10.855"/><use xlink:href="#33" y="13.026"/><use xlink:href="#7" y="15.197"/></svg><svg x="5644"><use xlink:href="#a"/><use xlink:href="#b" x="-.004" y="19.514"/><use xlink:href="#7" y="2.171"/><use xlink:href="#29" y="4.342"/><use xlink:href="#30" y="6.513"/><use xlink:href="#31" y="8.684"/><use xlink:href="#32" y="10.855"/><use xlink:href="#33" y="13.026"/><use xlink:href="#7" y="15.197"/><use xlink:href="#7" y="17.368"/></svg><svg x="5810"><use xlink:href="#a"/><use xlink:href="#b" x="10.996" y="19.514"/><use xlink:href="#7" y="2.171"/><use xlink:href="#29" y="4.342"/><use xlink:href="#30" y="6.513"/><use xlink:href="#31" y="8.684"/><use xlink:href="#32" y="10.855"/><use xlink:href="#33" y="13.026"/><use xlink:href="#7" y="15.197"/><use xlink:href="#7" y="17.368"/><use xlink:href="#8" y="19.539"/></svg><svg x="5976"><use xlink:href="#a"/><use xlink:href="#b" x="11.996" y="19.514"/><use xlink:href="#7" y="2.171"/><use xlink:href="#29" y="4.342"/><use xlink:href="#30" y="6.513"/><use xlink:href="#31" y="8.684"/><use xlink:href="#32" y="10.855"/><use xlink:href="#33" y="13.026"/><use xlink:href="#7" y="15.197"/><use xlink:href="#7" y="17.368"/><use xlink:href="#16" y="19.539"/></svg><svg x="6142"><use xlink:href="#a"/><use xlink:href="#b" x="-.004" y="21.685"/><use xlink:href="#7" y="2.171"/><use xlink:href="#29" y="4.342"/><use xlink:href="#30" y="6.513"/><use xlink:href="#31" y="8.684"/><use xlink:href="#32" y="10.855"/><use xlink:href="#33" y="13.026"/><use xlink:href="#7" y="15.197"/><use xlink:href="#7" y="17.368"/><use xlink:href="#16" y="19.539"/></svg><svg x="6308"><use xlink:href="#a"/><use xlink:href="#b" x="10.996" y="19.514"/><use xlink:href="#7" y="2.171"/><use xlink:href="#7" y="4.342"/><use xlink:href="#29" y="6.513"/><use xlink:href="#34" y="8.684"/><use xlink:href="#35" y="10.855"/><use xlink:href="#32" y="13.026"/><use xlink:href="#33" y="15.197"/><use xlink:href="#7" y="17.368"/><use xlink:href="#8" y="19.539"/></svg><svg x="6474"><use xlink:href="#a"/><use xlink:href="#b" x="11.996" y="19.514"/><use xlink:href="#7" y="2.171"/><use xlink:href="#7" y="4.342"/><use xlink:href="#29" y="6.513"/><use xlink:href="#34" y="8.684"/><use xlink:href="#35" y="10.855"/><use xlink:href="#32" y="13.026"/><use xlink:href="#33" y="15.197"/><use xlink:href="#7" y="17.368"/><use xlink:href="#36" y="19.539"/></svg><svg x="6640"><use xlink:href="#a"/><use xlink:href="#b" x="-.004" y="21.685"/><use xlink:href="#7" y="2.171"/><use xlink:href="#7" y="4.342"/><use xlink:href="#29" y="6.513"/><use xlink:href="#34" y="8.684"/><use xlink:href="#35" y="10.855"/><use xlink:href="#32" y="13.026"/><use xlink:href="#33" y="15.197"/><use xlink:href="#7" y="17.368"/><use xlink:href="#36" y="19.539"/></svg><svg x="6806"><use xlink:href="#a"/><use xlink:href="#b" x="10.996" y="19.514"/><use xlink:href="#7" y="2.171"/><use xlink:href="#15" y="4.342"/><use xlink:href="#37" y="6.513"/><use xlink:href="#38" y="8.684"/><use xlink:href="#39" y="10.855"/><use xlink:href="#27" y="13.026"/><use xlink:href="#28" y="15.197"/><use xlink:href="#7" y="17.368"/><use xlink:href="#8" y="19.539"/></svg><svg x="6972"><use xlink:href="#a"/><use xlink:href="#b" x="11.996" y="19.514"/><use xlink:href="#7" y="2.171"/><use xlink:href="#15" y="4.342"/><use xlink:href="#37" y="6.513"/><use xlink:href="#38" y="8.684"/><use xlink:href="#39" y="10.855"/><use xlink:href="#27" y="13.026"/><use xlink:href="#28" y="15.197"/><use xlink:href="#7" y="17.368"/><use xlink:href="#40" y="19.539"/></svg><svg x="7138"><use xlink:href="#a"/><use xlink:href="#b" x="-.004" y="21.685"/><use xlink:href="#7" y="2.171"/><use xlink:href="#15" y="4.342"/><use xlink:href="#37" y="6.513"/><use xlink:href="#38" y="8.684"/><use xlink:href="#39" y="10.855"/><use xlink:href="#27" y="13.026"/><use xlink:href="#28" y="15.197"/><use xlink:href="#7" y="17.368"/><use xlink:href="#40" y="19.539"/></svg><svg x="7304"><use xlink:href="#a"/><use xlink:href="#b" x="-.004" y="6.488"/><use xlink:href="#7" y="2.171"/><use xlink:href="#41" y="4.342"/></svg><svg x="7470"><use xlink:href="#a"/><use xlink:href="#b" x="-.004" y="15.172"/><use xlink:href="#7" y="2.171"/><use xlink:href="#41" y="4.342"/><use xlink:href="#42" y="6.513"/><use xlink:href="#43" y="8.684"/><use xlink:href="#44" y="10.855"/><use xlink:href="#28" y="13.026"/></svg><svg x="7636"><use xlink:href="#a"/><use xlink:href="#b" x="10.996" y="19.514"/><use xlink:href="#7" y="2.171"/><use xlink:href="#41" y="4.342"/><use xlink:href="#42" y="6.513"/><use xlink:href="#43" y="8.684"/><use xlink:href="#44" y="10.855"/><use xlink:href="#28" y="13.026"/><use xlink:href="#7" y="15.197"/><use xlink:href="#7" y="17.368"/><use xlink:href="#8" y="19.539"/></svg><svg x="7802"><use xlink:href="#a"/><use xlink:href="#b" x="11.996" y="19.514"/><use xlink:href="#7" y="2.171"/><use xlink:href="#41" y="4.342"/><use xlink:href="#42" y="6.513"/><use xlink:href="#43" y="8.684"/><use xlink:href="#44" y="10.855"/><use xlink:href="#28" y="13.026"/><use xlink:href="#7" y="15.197"/><use xlink:href="#7" y="17.368"/><use xlink:href="#9" y="19.539"/></svg><svg x="7968"><use xlink:href="#a"/><use xlink:href="#b" x="-.004" y="21.685"/><use xlink:href="#7" y="2.171"/><use xlink:href="#41" y="4.342"/><use xlink:href="#42" y="6.513"/><use xlink:href="#43" y="8.684"/><use xlink:href="#44" y="10.855"/><use xlink:href="#28" y="13.026"/><use xlink:href="#7" y="15.197"/><use xlink:href="#7" y="17.368"/><use xlink:href="#9" y="19.539"/></svg><svg x="8134"><use xlink:href="#a"/><use xlink:href="#b" x="10.996" y="19.514"/><use xlink:href="#7" y="2.171"/><use xlink:href="#33" y="4.342"/><use xlink:href="#45" y="6.513"/><use xlink:href="#46" y="8.684"/><use xlink:href="#47" y="10.855"/><use xlink:href="#33" y="13.026"/><use xlink:href="#7" y="15.197"/><use xlink:href="#7" y="17.368"/><use xlink:href="#8" y="19.539"/></svg><svg x="8300"><use xlink:href="#a"/><use xlink:href="#b" x="11.996" y="19.514"/><use xlink:href="#7" y="2.171"/><use xlink:href="#33" y="4.342"/><use xlink:href="#45" y="6.513"/><use xlink:href="#46" y="8.684"/><use xlink:href="#47" y="10.855"/><use xlink:href="#33" y="13.026"/><use xlink:href="#7" y="15.197"/><use xlink:href="#7" y="17.368"/><use xlink:href="#9" y="19.539"/></svg><svg x="8466"><use xlink:href="#a"/><use xlink:href="#b" x="-.004" y="21.685"/><use xlink:href="#7" y="2.171"/><use xlink:href="#33" y="4.342"/><use xlink:href="#45" y="6.513"/><use xlink:href="#46" y="8.684"/><use xlink:href="#47" y="10.855"/><use xlink:href="#33" y="13.026"/><use xlink:href="#7" y="15.197"/><use xlink:href="#7" y="17.368"/><use xlink:href="#9" y="19.539"/></svg><svg x="8632"><use xlink:href="#a"/><use xlink:href="#b" x="10.996" y="19.514"/><use xlink:href="#7" y="2.171"/><use xlink:href="#48" y="4.342"/><use xlink:href="#49" y="6.513"/><use xlink:href="#50" y="8.684"/><use xlink:href="#51" y="10.855"/><use xlink:href="#48" y="13.026"/><use xlink:href="#7" y="15.197"/><use xlink:href="#7" y="17.368"/><use xlink:href="#8" y="19.539"/></svg><svg x="8798"><use xlink:href="#a"/><use xlink:href="#b" x="11.996" y="19.514"/><use xlink:href="#7" y="2.171"/><use xlink:href="#48" y="4.342"/><use xlink:href="#49" y="6.513"/><use xlink:href="#50" y="8.684"/><use xlink:href="#51" y="10.855"/><use xlink:href="#48" y="13.026"/><use xlink:href="#7" y="15.197"/><use xlink:href="#7" y="17.368"/><use xlink:href="#36" y="19.539"/></svg><svg x="8964"><use xlink:href="#a"/><use xlink:href="#b" x="-.004" y="21.685"/><use xlink:href="#7" y="2.171"/><use xlink:href="#48" y="4.342"/><use xlink:href="#49" y="6.513"/><use xlink:href="#50" y="8.684"/><use xlink:href="#51" y="10.855"/><use xlink:href="#48" y="13.026"/><use xlink:href="#7" y="15.197"/><use xlink:href="#7" y="17.368"/><use xlink:href="#36" y="19.539"/></svg><svg x="9130"><use xlink:href="#a"/><use xlink:href="#b" x="10.996" y="19.514"/><use xlink:href="#7" y="2.171"/><use xlink:href="#33" y="4.342"/><use xlink:href="#52" y="6.513"/><use xlink:href="#53" y="8.684"/><use xlink:href="#54" y="10.855"/><use xlink:href="#33" y="13.026"/><use xlink:href="#7" y="15.197"/><use xlink:href="#7" y="17.368"/><use xlink:href="#8" y="19.539"/></svg><svg x="9296"><use xlink:href="#a"/><use xlink:href="#b" x="11.996" y="19.514"/><use xlink:href="#7" y="2.171"/><use xlink:href="#33" y="4.342"/><use xlink:href="#52" y="6.513"/><use xlink:href="#53" y="8.684"/><use xlink:href="#54" y="10.855"/><use xlink:href="#33" y="13.026"/><use xlink:href="#7" y="15.197"/><use xlink:href="#7" y="17.368"/><use xlink:href="#36" y="19.539"/></svg><svg x="9462"><use xlink:href="#a"/><use xlink:href="#b" x="-.004" y="21.685"/><use xlink:href="#7" y="2.171"/><use xlink:href="#33" y="4.342"/><use xlink:href="#52" y="6.513"/><use xlink:href="#53" y="8.684"/><use xlink:href="#54" y="10.855"/><use xlink:href="#33" y="13.026"/><use xlink:href="#7" y="15.197"/><use xlink:href="#7" y="17.368"/><use xlink:href="#36" y="19.539"/></svg><svg x="9628"><use xlink:href="#a"/><use xlink:href="#b" x="10.996" y="19.514"/><use xlink:href="#7" y="2.171"/><use xlink:href="#55" y="4.342"/><use xlink:href="#56" y="6.513"/><use xlink:href="#57" y="8.684"/><use xlink:href="#58" y="10.855"/><use xlink:href="#28" y="13.026"/><use xlink:href="#7" y="15.197"/><use xlink:href="#7" y="17.368"/><use xlink:href="#8" y="19.539"/></svg><svg x="9794"><use xlink:href="#a"/><use xlink:href="#b" x="11.996" y="19.514"/><use xlink:href="#7" y="2.171"/><use xlink:href="#55" y="4.342"/><use xlink:href="#56" y="6.513"/><use xlink:href="#57" y="8.684"/><use xlink:href="#58" y="10.855"/><use xlink:href="#28" y="13.026"/><use xlink:href="#7" y="15.197"/><use xlink:href="#7" y="17.368"/><use xlink:href="#59" y="19.539"/></svg><svg x="9960"><use xlink:href="#a"/><use xlink:href="#b" x="-.004" y="21.685"/><use xlink:href="#7" y="2.171"/><use xlink:href="#55" y="4.342"/><use xlink:href="#56" y="6.513"/><use xlink:href="#57" y="8.684"/><use xlink:href="#58" y="10.855"/><use xlink:href="#28" y="13.026"/><use xlink:href="#7" y="15.197"/><use xlink:href="#7" y="17.368"/><use xlink:href="#59" y="19.539"/></svg><svg x="10126"><use xlink:href="#a"/><use xlink:href="#b" x="1.996" y="23.856"/><use xlink:href="#7" y="2.171"/><use xlink:href="#55" y="4.342"/><use xlink:href="#56" y="6.513"/><use xlink:href="#57" y="8.684"/><use xlink:href="#58" y="10.855"/><use xlink:href="#28" y="13.026"/><use xlink:href="#7" y="15.197"/><use xlink:href="#7" y="17.368"/><use xlink:href="#59" y="19.539"/><use xlink:href="#1" y="21.71"/><use xlink:href="#2" y="23.881"/></svg><svg x="10292"><use xlink:href="#a"/><use xlink:href="#b" x="2.996" y="23.856"/><use xlink:href="#7" y="2.171"/><use xlink:href="#55" y="4.342"/><use xlink:href="#56" y="6.513"/><use xlink:href="#57" y="8.684"/><use xlink:href="#58" y="10.855"/><use xlink:href="#28" y="13.026"/><use xlink:href="#7" y="15.197"/><use xlink:href="#7" y="17.368"/><use xlink:href="#59" y="19.539"/><use xlink:href="#1" y="21.71"/><text y="25.551" class="h">$</text><text x="2.004" y="25.551" class="f">a</text></svg><svg x="10458"><use xlink:href="#a"/><use xlink:href="#b" x="3.996" y="23.856"/><use xlink:href="#7" y="2.171"/><use xlink:href="#55" y="4.342"/><use xlink:href="#56" y="6.513"/><use xlink:href="#57" y="8.684"/><use xlink:href="#58" y="10.855"/><use xlink:href="#28" y="13.026"/><use xlink:href="#7" y="15.197"/><use xlink:href="#7" y="17.368"/><use xlink:href="#59" y="19.539"/><use xlink:href="#1" y="21.71"/><text y="25.551" class="h">$</text><text x="2.004" y="25.551" class="f">as</text></svg><svg x="10624"><use xlink:href="#a"/><use xlink:href="#b" x="4.996" y="23.856"/><use xlink:href="#7" y="2.171"/><use xlink:href="#55" y="4.342"/><use xlink:href="#56" y="6.513"/><use xlink:href="#57" y="8.684"/><use xlink:href="#58" y="10.855"/><use xlink:href="#28" y="13.026"/><use xlink:href="#7" y="15.197"/><use xlink:href="#7" y="17.368"/><use xlink:href="#59" y="19.539"/><use xlink:href="#1" y="21.71"/><text y="25.551" class="h">$</text><text x="2.004" y="25.551" class="f">asc</text></svg><svg x="10790"><use xlink:href="#a"/><use xlink:href="#b" x="5.996" y="23.856"/><use xlink:href="#7" y="2.171"/><use xlink:href="#55" y="4.342"/><use xlink:href="#56" y="6.513"/><use xlink:href="#57" y="8.684"/><use xlink:href="#58" y="10.855"/><use xlink:href="#28" y="13.026"/><use xlink:href="#7" y="15.197"/><use xlink:href="#7" y="17.368"/><use xlink:href="#59" y="19.539"/><use xlink:href="#1" y="21.71"/><use xlink:href="#60" y="23.881"/></svg><svg x="10956"><use xlink:href="#a"/><use xlink:href="#b" x="6.996" y="23.856"/><use xlink:href="#7" y="2.171"/><use xlink:href="#55" y="4.342"/><use xlink:href="#56" y="6.513"/><use xlink:href="#57" y="8.684"/><use xlink:href="#58" y="10.855"/><use xlink:href="#28" y="13.026"/><use xlink:href="#7" y="15.197"/><use xlink:href="#7" y="17.368"/><use xlink:href="#59" y="19.539"/><use xlink:href="#1" y="21.71"/><text y="25.551" class="h">$</text><text x="2.004" y="25.551" class="f">ascis</text></svg><svg x="11122"><use xlink:href="#a"/><use xlink:href="#b" x="5.996" y="23.856"/><use xlink:href="#7" y="2.171"/><use xlink:href="#55" y="4.342"/><use xlink:href="#56" y="6.513"/><use xlink:href="#57" y="8.684"/><use xlink:href="#58" y="10.855"/><use xlink:href="#28" y="13.026"/><use xlink:href="#7" y="15.197"/><use xlink:href="#7" y="17.368"/><use xlink:href="#59" y="19.539"/><use xlink:href="#1" y="21.71"/><use xlink:href="#60" y="23.881"/></svg><svg x="11288"><use xlink:href="#a"/><use xlink:href="#b" x="6.996" y="23.856"/><use xlink:href="#7" y="2.171"/><use xlink:href="#55" y="4.342"/><use xlink:href="#56" y="6.513"/><use xlink:href="#57" y="8.684"/><use xlink:href="#58" y="10.855"/><use xlink:href="#28" y="13.026"/><use xlink:href="#7" y="15.197"/><use xlink:href="#7" y="17.368"/><use xlink:href="#59" y="19.539"/><use xlink:href="#1" y="21.71"/><text y="25.551" class="h">$</text><text x="2.004" y="25.551" class="f">ascii</text></svg><svg x="11454"><use xlink:href="#a"/><use xlink:href="#b" x="7.996" y="23.856"/><use xlink:href="#7" y="2.171"/><use xlink:href="#55" y="4.342"/><use xlink:href="#56" y="6.513"/><use xlink:href="#57" y="8.684"/><use xlink:href="#58" y="10.855"/><use xlink:href="#28" y="13.026"/><use xlink:href="#7" y="15.197"/><use xlink:href="#7" y="17.368"/><use xlink:href="#59" y="19.539"/><use xlink:href="#1" y="21.71"/><text y="25.551" class="h">$</text><text x="2.004" y="25.551" class="f">asciis</text></svg><svg x="11620"><use xlink:href="#a"/><use xlink:href="#b" x="8.996" y="23.856"/><use xlink:href="#7" y="2.171"/><use xlink:href="#55" y="4.342"/><use xlink:href="#56" y="6.513"/><use xlink:href="#57" y="8.684"/><use xlink:href="#58" y="10.855"/><use xlink:href="#28" y="13.026"/><use xlink:href="#7" y="15.197"/><use xlink:href="#7" y="17.368"/><use xlink:href="#59" y="19.539"/><use xlink:href="#1" y="21.71"/><text y="25.551" class="h">$</text><text x="2.004" y="25.551" class="f">asciisv</text></svg><svg x="11786"><use xlink:href="#a"/><use xlink:href="#b" x="9.996" y="23.856"/><use xlink:href="#7" y="2.171"/><use xlink:href="#55" y="4.342"/><use xlink:href="#56" y="6.513"/><use xlink:href="#57" y="8.684"/><use xlink:href="#58" y="10.855"/><use xlink:href="#28" y="13.026"/><use xlink:href="#7" y="15.197"/><use xlink:href="#7" y="17.368"/><use xlink:href="#59" y="19.539"/><use xlink:href="#1" y="21.71"/><use xlink:href="#61" y="23.881"/></svg><svg x="11952"><use xlink:href="#a"/><use xlink:href="#b" x="-.004" y="26.027"/><use xlink:href="#7" y="2.171"/><use xlink:href="#55" y="4.342"/><use xlink:href="#56" y="6.513"/><use xlink:href="#57" y="8.684"/><use xlink:href="#58" y="10.855"/><use xlink:href="#28" y="13.026"/><use xlink:href="#7" y="15.197"/><use xlink:href="#7" y="17.368"/><use xlink:href="#59" y="19.539"/><use xlink:href="#1" y="21.71"/><use xlink:href="#61" y="23.881"/></svg></svg></g></g></svg></svg>